<?xml version="1.0" standalone="no"?>
<!DOCTYPE svg PUBLIC "-//W3C//DTD SVG 20010904//EN"
 "http://www.w3.org/TR/2001/REC-SVG-20010904/DTD/svg10.dtd">
<svg version="1.0" xmlns="http://www.w3.org/2000/svg"
 width="120.000000pt" height="120.000000pt" viewBox="0 0 120.000000 120.000000"
 preserveAspectRatio="xMidYMid meet">
<metadata>
Created by potrace 1.14, written by Peter Selinger 2001-2017
</metadata>
<g transform="translate(0.000000,120.000000) scale(0.100000,-0.100000)"
fill="#000000" stroke="none">
<path d="M0 1183 c0 -7 8 -12 18 -10 9 1 17 7 17 12 0 5 -8 10 -17 10 -10 1
-18 -4 -18 -12z"/>
<path d="M55 1190 c5 -8 -25 -37 -32 -32 -14 10 -23 -4 -21 -33 2 -36 12 -36
21 0 4 15 5 14 6 -7 1 -16 -6 -31 -15 -36 -11 -6 -13 -11 -5 -16 6 -4 11 -13
11 -19 0 -8 -3 -8 -9 1 -5 8 -8 -10 -8 -46 0 -55 2 -59 30 -72 25 -11 27 -14
13 -22 -9 -5 -22 -7 -29 -4 -7 2 -4 5 6 5 21 1 13 21 -9 21 -11 0 -14 -10 -12
-40 1 -22 6 -40 10 -40 5 0 4 -8 -1 -19 -25 -46 1 -203 30 -185 5 3 6 -2 3
-11 -6 -14 -10 -12 -24 11 -18 26 -18 25 -19 -85 0 -86 3 -111 13 -111 8 0 13
8 12 17 0 10 6 18 14 19 8 0 9 -1 3 -3 -7 -3 -13 -5 -13 -6 0 -1 4 -16 9 -34
7 -26 7 -31 -5 -26 -8 3 -11 10 -8 15 4 6 1 9 -7 6 -19 -6 -24 -49 -7 -59 8
-6 9 -9 2 -9 -8 0 -12 -25 -12 -75 0 -69 9 -94 21 -62 3 6 6 2 6 -10 1 -17 -3
-21 -17 -16 -15 6 -16 5 -2 -12 9 -11 10 -16 3 -11 -8 4 -13 1 -13 -9 0 -10 5
-14 12 -9 10 6 11 4 1 -7 -21 -21 -15 -37 12 -35 13 2 22 -1 19 -6 -3 -5 -12
-7 -20 -4 -8 3 -14 2 -15 -2 -6 -53 -6 -72 2 -72 5 0 9 -5 9 -11 0 -5 -5 -7
-10 -4 -5 3 -10 -2 -10 -11 0 -16 2 -15 21 2 15 13 20 14 17 4 -3 -12 40 -15
285 -16 246 -2 285 0 270 12 -21 16 -37 18 -28 4 3 -6 -2 -10 -12 -10 -12 0
-19 7 -19 19 0 11 5 17 11 13 5 -4 15 -7 20 -8 25 -3 55 -17 55 -25 0 -5 5 -9
11 -9 5 0 7 6 3 13 -6 9 -4 9 7 0 17 -16 83 -18 73 -2 -4 8 -1 8 12 1 11 -5
72 -10 137 -10 92 0 117 3 117 13 0 22 -15 26 -36 10 -26 -20 -43 -19 -18 1
17 14 17 15 1 10 -11 -3 -16 -2 -12 4 4 6 12 10 18 9 7 -1 19 -1 27 0 13 1 13
2 0 12 -13 9 -13 10 0 6 8 -2 16 -8 16 -13 6 -40 18 -54 46 -54 20 0 27 4 22
12 -6 11 -4 11 7 0 19 -17 73 -16 66 2 -3 8 4 22 16 33 22 18 22 18 5 -3 -22
-25 -7 -44 34 -44 27 0 28 2 28 48 0 27 -3 51 -6 54 -3 4 -20 0 -38 -7 -28
-12 -33 -12 -33 0 0 8 4 12 9 9 16 -10 50 7 43 23 -4 13 -3 14 10 3 13 -11 15
-5 13 53 -2 36 -6 63 -9 61 -4 -2 -9 3 -12 11 -4 8 -1 12 7 9 8 -3 13 8 15 37
1 34 -1 40 -13 36 -9 -4 -18 -1 -22 5 -4 7 -3 8 4 4 7 -4 12 -3 12 3 0 5 -6
12 -12 14 -8 4 -7 6 4 6 9 1 19 -5 22 -11 3 -7 5 15 4 50 -1 43 -5 62 -14 62
-7 0 -16 -4 -19 -10 -3 -5 -13 -10 -21 -10 -11 0 -14 8 -12 28 2 20 -1 26 -12
24 -13 -3 -13 -1 -1 10 11 10 14 10 18 1 3 -7 14 -13 24 -13 11 0 18 -4 14
-10 -3 -5 -12 -7 -20 -3 -10 3 -15 -1 -15 -11 0 -14 3 -15 23 -4 12 7 25 12
28 11 3 -1 6 5 6 13 0 8 -5 14 -11 14 -6 0 -5 5 2 12 7 7 12 25 12 41 0 21 -4
28 -17 25 -9 -2 -18 -9 -21 -16 -2 -7 2 -10 12 -6 20 8 20 -5 1 -30 -15 -20
-15 -20 -16 0 -1 10 -3 29 -4 41 -2 16 3 23 15 23 21 0 35 29 21 43 -5 5 -12
1 -16 -12 -5 -17 -9 -18 -20 -8 -14 13 -10 31 6 22 5 -4 9 -1 9 4 0 6 6 11 13
11 10 0 14 24 15 89 3 79 1 90 -15 94 -16 4 -17 5 -1 6 16 1 18 13 16 110 -1
75 -5 108 -12 104 -6 -3 -5 0 2 8 6 7 12 32 12 56 0 36 -3 41 -17 36 -16 -6
-16 -4 1 13 20 19 20 19 -3 22 -12 2 -29 -2 -38 -10 -9 -7 -14 -8 -11 -2 5 6
-12 11 -48 12 -33 0 -54 -3 -54 -10 0 -6 -7 -5 -17 3 -15 12 -16 12 -8 -1 6
-12 5 -13 -6 -2 -19 17 -29 15 -23 -5 5 -16 4 -16 -5 -2 -13 20 -97 24 -120 6
-12 -9 -13 -9 -7 1 5 8 0 12 -13 12 -12 0 -21 -6 -21 -12 0 -10 -3 -9 -9 1 -5
7 -14 12 -21 9 -9 -3 -8 -9 4 -21 10 -9 13 -17 7 -17 -6 0 -15 9 -21 20 -11
21 -32 28 -28 9 2 -6 -4 -14 -12 -16 -12 -4 -12 -3 -1 5 10 7 10 11 1 17 -7 4
-16 1 -21 -6 -6 -10 -9 -11 -9 -1 0 6 -5 12 -11 12 -5 0 -7 -6 -3 -12 6 -10 4
-10 -7 -2 -16 12 -84 18 -99 9 -6 -3 -8 -11 -4 -16 3 -6 12 -5 22 3 10 7 6 1
-6 -14 -22 -24 -22 -27 -6 -36 16 -9 15 -11 -7 -22 -21 -12 -23 -12 -11 3 11
13 10 17 -4 25 -11 6 -14 14 -8 23 15 25 13 39 -7 39 -11 0 -17 -4 -14 -10 3
-5 1 -10 -4 -10 -6 0 -11 4 -11 8 0 4 -13 9 -29 10 -24 2 -28 -1 -26 -20 4
-38 5 -39 15 -33 6 3 10 1 10 -4 0 -17 -18 -13 -29 7 -6 9 -11 13 -11 7 -6
-54 -21 -73 -18 -22 2 20 9 39 16 42 14 5 7 25 -9 25 -6 0 -7 -5 -3 -12 5 -7
3 -8 -7 -2 -18 11 -126 18 -116 7 5 -4 13 -8 18 -8 17 0 10 -20 -8 -24 -10 -2
-15 0 -11 4 4 4 1 13 -6 21 -10 9 -41 13 -102 12 -55 0 -81 -4 -69 -9 16 -6
17 -8 3 -8 -9 -1 -19 3 -23 8 -3 5 -19 9 -35 9 -16 -1 -27 -4 -25 -8z m193
-70 c1 -32 -13 -43 -15 -12 -1 9 -6 29 -12 44 -8 20 -15 25 -33 22 -21 -4 -21
-4 -3 5 27 12 62 -20 63 -59z m9 48 c-3 -8 -6 -5 -6 6 -1 11 2 17 5 13 3 -3 4
-12 1 -19z m372 0 c-10 -7 -8 -9 7 -5 12 2 28 0 35 -5 11 -8 11 -9 -1 -5 -8 2
-23 0 -32 -5 -12 -6 -18 -5 -18 3 0 8 -5 7 -17 -2 -13 -11 -13 -8 2 12 11 15
24 25 29 22 4 -3 2 -10 -5 -15z m484 15 c3 -5 -1 -14 -9 -20 -8 -8 -15 -9 -19
-3 -3 6 -1 10 5 10 6 0 8 5 5 10 -3 6 -2 10 4 10 5 0 12 -3 14 -7z m-822 -33
c5 0 9 -5 9 -11 0 -8 -5 -8 -15 1 -8 7 -14 20 -14 29 1 13 2 13 6 -1 2 -10 9
-18 14 -18z m665 5 c1 -8 -1 -17 -5 -19 -4 -3 -7 6 -7 19 0 25 8 25 12 0z
m-446 5 c8 -5 12 -11 10 -14 -3 -2 -14 2 -24 10 -22 15 -10 19 14 4z m354 -5
c-4 -8 -1 -15 5 -15 15 0 14 -17 -2 -23 -9 -3 -12 4 -11 22 2 29 2 31 9 31 2
0 2 -7 -1 -15z m166 11 c0 -2 -9 -6 -20 -9 -11 -3 -18 -1 -14 4 5 9 34 13 34
5z m-872 -37 c14 0 13 -2 -3 -8 -27 -11 -34 -5 -27 22 5 18 7 19 10 5 2 -10
11 -18 20 -19z m52 27 c0 -3 -4 -8 -10 -11 -5 -3 -10 -1 -10 4 0 6 5 11 10 11
6 0 10 -2 10 -4z m630 -12 c0 -2 -7 -4 -15 -4 -8 0 -15 4 -15 10 0 5 7 7 15 4
8 -4 15 -8 15 -10z m90 6 c0 -5 -5 -10 -11 -10 -5 0 -7 5 -4 10 3 6 8 10 11
10 2 0 4 -4 4 -10z m214 -6 c5 -14 4 -15 -9 -4 -17 14 -19 20 -6 20 5 0 12 -7
15 -16z m-1024 2 c0 -3 -4 -8 -10 -11 -5 -3 -10 -1 -10 4 0 6 5 11 10 11 6 0
10 -2 10 -4z m90 -31 c-7 -9 -15 -13 -17 -11 -3 3 -16 1 -30 -5 -16 -6 -22 -6
-18 1 3 6 13 10 21 10 8 0 14 5 14 11 0 6 7 9 15 5 8 -3 15 0 15 6 0 6 3 8 6
5 4 -4 1 -13 -6 -22z m65 16 c3 -5 2 -12 -3 -15 -5 -3 -9 1 -9 9 0 17 3 19 12
6z m378 2 c-7 -2 -13 -9 -13 -14 0 -6 4 -8 8 -5 4 2 9 -5 9 -16 2 -21 2 -21
-13 1 -16 22 -11 42 9 40 9 0 9 -2 0 -6z m349 -15 c-6 -23 -9 -23 -22 1 -8 16
-7 20 9 18 12 -1 17 -7 13 -19z m-662 8 c0 -3 -4 -8 -10 -11 -5 -3 -10 -1 -10
4 0 6 5 11 10 11 6 0 10 -2 10 -4z m185 -6 c-4 -6 -1 -18 7 -27 12 -15 11 -15
-8 -5 -12 6 -25 8 -29 4 -4 -4 -1 3 6 16 8 12 17 22 22 22 4 0 5 -5 2 -10z
m170 0 c-3 -5 -12 -10 -18 -10 -7 0 -6 4 3 10 19 12 23 12 15 0z m129 -32 c7
-5 7 -8 1 -8 -17 0 -30 14 -33 35 l-2 20 11 -20 c7 -11 17 -23 23 -27z m16 38
c0 -11 -19 -15 -25 -6 -3 5 1 10 9 10 9 0 16 -2 16 -4z m108 -19 c12 -11 22
-28 22 -36 0 -9 -9 -1 -20 17 -15 25 -25 32 -38 27 -9 -4 -24 -10 -32 -13 -12
-5 -12 -4 0 9 20 21 41 20 68 -4z m-841 -9 c-3 -8 -6 -5 -6 6 -1 11 2 17 5 13
3 -3 4 -12 1 -19z m287 14 c3 -5 -1 -9 -9 -9 -8 0 -12 4 -9 9 3 4 7 8 9 8 2 0
6 -4 9 -8z m321 -2 c-3 -5 -1 -10 4 -10 6 0 11 -4 11 -10 0 -5 -5 -9 -12 -7
-15 3 -18 -23 -4 -42 8 -11 8 -13 -1 -7 -8 4 -13 2 -13 -4 0 -6 -5 -8 -11 -4
-8 4 -7 9 2 15 11 7 11 9 -1 9 -12 0 -12 2 -2 9 8 4 13 12 12 17 -2 15 8 44
15 44 3 0 3 -4 0 -10z m334 -4 c9 -11 6 -12 -14 -8 -14 2 -25 8 -25 13 0 14
26 11 39 -5z m-985 -11 c-4 -8 -11 -15 -16 -15 -6 0 -5 6 2 15 7 8 14 15 16
15 2 0 1 -7 -2 -15z m567 -2 c13 -16 12 -17 -3 -4 -10 7 -18 15 -18 17 0 8 8
3 21 -13z m-421 -8 c-7 -8 -17 -15 -23 -15 -6 0 -2 7 9 15 25 19 30 19 14 0z
m944 1 c-3 -8 -11 -13 -18 -10 -9 4 -11 -4 -8 -28 2 -18 3 -31 0 -28 -23 29
-31 43 -20 36 6 -4 12 -3 12 1 0 5 -6 15 -12 22 -7 8 -8 12 -3 9 6 -3 19 -2
30 3 11 4 21 8 22 8 1 1 0 -5 -3 -13z m-996 -16 c-7 -11 -14 -16 -16 -10 -2 6
-8 8 -13 4 -5 -3 -9 0 -9 6 0 7 7 10 15 7 8 -4 17 -2 20 3 4 6 8 10 11 10 2 0
-1 -9 -8 -20z m122 10 c0 -5 -6 -9 -12 -7 -7 1 -12 -4 -10 -11 1 -8 -2 -11 -8
-7 -8 5 -7 11 1 21 13 16 29 18 29 4z m326 -2 c3 -4 -1 -5 -10 -4 -8 1 -18 5
-22 8 -3 4 1 5 10 4 8 -1 18 -5 22 -8z m175 -6 c-9 -3 -7 -10 6 -26 18 -21 18
-21 -4 -3 -21 19 -21 53 0 40 8 -5 7 -8 -2 -11z m87 5 c14 4 14 3 2 -5 -16
-12 -30 -7 -29 11 0 9 2 9 5 0 3 -7 13 -9 22 -6z m219 -27 c-4 -37 1 -45 26
-41 4 0 7 -3 7 -9 0 -13 -3 -13 -35 2 -19 8 -22 14 -13 20 10 6 10 10 -1 17
-16 10 -25 45 -10 35 5 -3 6 -11 3 -17 -4 -7 -3 -8 2 -4 5 5 10 13 10 18 2 16
4 19 10 19 3 0 3 -18 1 -40z m-612 -6 c-24 -24 -26 -19 -16 35 1 2 8 -2 16 -9
12 -10 12 -14 0 -26z m462 4 c4 -28 -6 -18 -12 12 -2 12 -1 20 2 16 4 -4 8
-16 10 -28z m-847 18 c0 -2 -7 -7 -16 -10 -8 -3 -12 -2 -9 4 6 10 25 14 25 6z
m275 -15 c3 -11 13 -25 22 -33 15 -12 16 -10 9 17 -5 22 -4 26 4 15 9 -13 11
-13 20 0 6 10 10 11 10 3 0 -20 -4 -28 -13 -25 -5 1 -6 -5 -3 -15 4 -14 0 -18
-18 -18 -13 0 -22 3 -19 8 2 4 -4 7 -14 8 -10 0 -13 3 -6 5 7 3 9 12 6 20 -3
7 -8 12 -12 9 -4 -2 -8 2 -8 10 0 21 15 18 22 -4z m300 1 c-3 -3 -11 0 -18 7
-9 10 -8 11 6 5 10 -3 15 -9 12 -12z m-99 -26 c1 -17 -1 -26 -3 -19 -2 7 -10
10 -17 7 -8 -3 -16 2 -19 10 -4 11 0 14 16 11 21 -4 21 -4 3 10 -18 14 -18 14
1 13 13 -2 19 -10 19 -32z m49 4 c3 -18 2 -20 -10 -10 -8 6 -11 18 -8 26 7 18
12 13 18 -16z m240 8 c10 -13 20 -18 22 -11 6 18 41 3 47 -20 5 -20 4 -21 -8
-4 -15 20 -36 23 -37 5 0 -10 -2 -10 -5 -1 -3 7 -12 9 -20 6 -9 -3 -14 0 -12
7 2 7 -3 15 -11 18 -9 3 -11 0 -6 -8 5 -8 4 -11 -3 -6 -11 7 -6 36 7 36 4 0
15 -10 26 -22z m166 9 c-1 -4 -1 -14 -1 -22 0 -26 -15 -16 -16 10 -1 15 2 25
8 23 5 -2 9 -7 9 -11z m-894 -4 c-4 -3 1 -16 10 -27 10 -12 11 -16 4 -9 -7 6
-21 9 -30 6 -14 -4 -14 -3 -1 6 8 6 11 11 7 11 -9 0 1 20 10 20 4 0 3 -3 0 -7z
m838 -13 c-13 -14 -14 -20 -5 -20 7 0 11 -2 8 -5 -3 -3 -12 -3 -21 1 -15 5
-14 8 6 25 29 24 35 24 12 -1z m212 -4 c-18 -27 -37 -32 -36 -9 0 10 3 13 6 5
2 -6 9 -10 13 -7 5 3 7 11 4 19 -3 7 2 13 11 13 13 0 13 -3 2 -21z m-1094 -6
c-4 -15 0 -20 13 -20 16 0 16 -2 4 -10 -9 -6 -17 -5 -22 3 -11 17 -10 47 1 47
5 0 7 -9 4 -20z m426 -7 c8 -15 8 -23 1 -23 -5 0 -10 7 -10 16 0 8 -4 12 -10
9 -6 -3 -7 1 -4 10 7 18 7 18 23 -12z m151 2 c-6 -7 -8 -20 -4 -29 4 -11 0
-16 -14 -16 -12 0 -24 4 -27 10 -4 6 1 7 11 3 14 -5 16 -3 11 11 -9 22 -3 33
17 33 11 0 13 -4 6 -12z m-601 -18 c0 -9 -2 -9 -5 0 -3 7 -13 9 -22 6 -14 -4
-14 -3 -2 5 16 12 30 7 29 -11z m269 2 c-9 -6 -9 -9 -1 -9 6 0 15 -9 18 -20 4
-11 10 -18 14 -16 4 3 7 -3 7 -13 0 -13 -6 -17 -20 -13 -11 3 -15 7 -8 10 9 3
9 9 1 23 -5 11 -14 17 -18 14 -5 -2 -11 6 -13 19 -4 19 -1 22 14 18 15 -4 17
-7 6 -13z m131 -2 c4 7 10 6 18 -2 10 -11 8 -13 -10 -12 -25 1 -39 16 -29 32
4 5 8 2 10 -9 2 -10 7 -14 11 -9z m375 -6 c9 -7 13 -17 10 -22 -7 -12 -34 -11
-34 1 0 5 8 7 18 4 16 -5 16 -5 -1 6 -9 6 -21 9 -26 6 -5 -3 -11 1 -15 9 -7
18 24 15 48 -4z m347 6 c-6 -8 -8 -17 -4 -20 3 -4 -1 -7 -10 -7 -9 0 -21 -8
-26 -17 -6 -10 -11 -14 -11 -9 0 6 12 23 27 38 27 29 44 39 24 15z m-1031 -14
c0 -5 -12 -14 -28 -20 l-27 -13 24 20 c25 22 31 24 31 13z m70 -1 c-8 -4 -15
-17 -14 -30 1 -12 -2 -24 -6 -27 -4 -2 -6 10 -5 28 3 40 2 37 23 36 14 0 14
-2 2 -7z m54 -7 c-4 -8 -13 -15 -20 -15 -12 0 -12 3 -2 15 17 19 29 19 22 0z
m426 11 c0 -2 -7 -7 -16 -10 -8 -3 -12 -2 -9 4 6 10 25 14 25 6z m-170 -10 c0
-11 -19 -15 -25 -6 -3 5 1 10 9 10 9 0 16 -2 16 -4z m368 -4 c16 12 16 11 1
-7 -9 -11 -14 -25 -12 -32 2 -6 0 -14 -6 -17 -14 -9 -25 14 -13 26 6 6 9 16 8
22 -2 6 -1 7 2 3 2 -4 11 -2 20 5z m-458 -6 c0 -2 -7 -7 -16 -10 -8 -3 -12 -2
-9 4 6 10 25 14 25 6z m-361 -34 c0 -11 -2 -12 -6 -4 -2 6 -9 10 -14 7 -5 -4
-6 1 -3 9 8 20 24 11 23 -12z m698 12 c13 -13 17 -13 24 -2 7 10 9 9 9 -4 0
-10 -7 -18 -16 -18 -14 0 -14 -1 0 -16 23 -23 20 -30 -4 -9 -11 10 -18 20 -15
23 9 9 -17 32 -28 25 -6 -3 -7 -1 -3 5 9 16 14 15 33 -4z m153 6 c0 -5 -2 -10
-4 -10 -3 0 -8 5 -11 10 -3 6 -1 10 4 10 6 0 11 -4 11 -10z m30 -29 c0 -21
-13 -4 -17 22 -2 17 -1 19 7 7 5 -8 10 -21 10 -29z m229 36 c-2 -1 -13 -9 -24
-17 -19 -14 -19 -14 -6 3 7 9 18 17 24 17 6 0 8 -1 6 -3z m-948 -49 c-10 -11
-11 -9 -5 6 5 13 4 17 -4 12 -8 -4 -12 0 -12 11 0 16 1 16 17 0 14 -14 15 -19
4 -29z m-66 14 c-3 -3 -11 0 -18 7 -9 10 -8 11 6 5 10 -3 15 -9 12 -12z m861
-7 c3 -19 -23 -19 -42 0 -9 8 -11 15 -5 15 5 0 13 -5 16 -10 9 -14 27 -1 19
13 -4 7 -3 8 1 4 5 -4 10 -14 11 -22z m40 6 c-3 -5 1 -14 9 -21 8 -7 15 -18
15 -24 0 -6 -5 -3 -11 7 -6 9 -15 15 -20 12 -5 -4 -6 -12 -3 -18 4 -7 3 -8 -1
-4 -14 12 -15 41 -2 49 16 10 19 10 13 -1z m50 -11 c0 -12 -4 -16 -9 -11 -5 5
-6 14 -3 20 10 15 12 14 12 -9z m50 -7 c-10 -10 -19 5 -10 18 6 11 8 11 12 0
2 -7 1 -15 -2 -18z m-866 3 c-4 -4 -16 -4 -26 2 -16 9 -14 10 8 9 15 -1 23 -6
18 -11z m-177 -10 c26 9 30 -16 7 -38 -13 -12 -21 -15 -18 -7 3 8 -4 25 -16
39 -11 13 -14 19 -5 12 9 -7 23 -10 32 -6z m54 8 c-3 -3 -12 -4 -19 -1 -8 3
-5 6 6 6 11 1 17 -2 13 -5z m153 -9 c0 -8 -4 -15 -10 -15 -5 0 -7 7 -4 15 4 8
8 15 10 15 2 0 4 -7 4 -15z m-120 -5 c0 -5 -2 -10 -4 -10 -3 0 -8 5 -11 10 -3
6 -1 10 4 10 6 0 11 -4 11 -10z m62 -9 c-2 -8 3 -11 12 -8 13 5 14 3 4 -13
-12 -19 -13 -19 -21 2 -4 12 -13 26 -20 31 -8 5 -5 7 8 4 11 -2 19 -9 17 -16z
m618 -6 c11 -13 15 -13 21 -3 6 9 9 9 9 1 0 -16 -17 -26 -25 -13 -4 6 -10 8
-15 5 -4 -3 -13 2 -20 10 -10 12 -10 15 3 15 8 0 20 -7 27 -15z m271 -2 c13
-16 12 -17 -3 -4 -10 7 -18 15 -18 17 0 8 8 3 21 -13z m-1113 -17 c-10 -7 -15
-15 -12 -18 2 -3 -2 -8 -11 -12 -11 -4 -14 -2 -9 7 12 20 39 45 44 40 3 -3 -3
-10 -12 -17z m602 -12 c0 -2 -7 -4 -15 -4 -8 0 -15 4 -15 10 0 5 7 7 15 4 8
-4 15 -8 15 -10z m425 6 c3 -6 -1 -7 -9 -4 -18 7 -21 14 -7 14 6 0 13 -4 16
-10z m32 -32 c-19 -12 -27 2 -14 22 11 18 12 19 18 2 3 -9 1 -20 -4 -24z
m-716 17 c5 4 6 -1 2 -10 -5 -13 -7 -14 -14 -3 -5 7 -8 18 -8 23 0 6 3 4 6 -3
2 -6 9 -10 14 -7z m176 8 c-4 -3 1 -12 11 -19 15 -12 15 -12 -5 -7 -13 3 -23
9 -23 12 0 9 11 21 18 21 3 0 2 -3 -1 -7z m253 -3 c0 -5 -5 -10 -11 -10 -5 0
-7 5 -4 10 3 6 8 10 11 10 2 0 4 -4 4 -10z m110 1 c0 -5 -7 -12 -16 -15 -14
-5 -15 -4 -4 9 14 17 20 19 20 6z m27 -6 c0 -8 -4 -12 -9 -9 -5 3 -6 10 -3 15
9 13 12 11 12 -6z m-804 -9 c4 -10 1 -13 -9 -9 -7 3 -14 9 -14 14 0 14 17 10
23 -5z m694 7 c-4 -3 -2 -12 3 -18 7 -9 7 -14 -2 -17 -26 -9 -61 -2 -65 12 -3
9 -1 11 4 4 11 -14 55 -13 49 2 -4 12 2 24 12 24 3 0 2 -3 -1 -7z m38 -3 c-3
-5 -12 -10 -18 -10 -7 0 -6 4 3 10 19 12 23 12 15 0z m-665 -15 c0 -9 -6 -12
-17 -8 -10 4 -14 2 -9 -5 3 -6 2 -13 -4 -17 -7 -4 -7 -13 1 -28 9 -20 9 -20
-4 -5 -13 16 -15 16 -35 -2 -25 -23 -40 -27 -22 -5 10 12 10 15 -1 15 -11 0
-11 2 1 10 9 5 17 5 20 -1 4 -5 15 -1 25 11 10 11 14 20 9 20 -5 0 0 7 10 15
24 19 26 19 26 0z m65 5 c3 -5 -1 -10 -10 -10 -9 0 -13 5 -10 10 3 6 8 10 10
10 2 0 7 -4 10 -10z m365 -6 c0 -2 -7 -4 -15 -4 -8 0 -15 4 -15 10 0 5 7 7 15
4 8 -4 15 -8 15 -10z m-280 -3 c0 -6 -5 -13 -12 -17 -7 -5 -8 -3 -3 6 5 8 3
11 -6 8 -8 -3 -13 -13 -11 -23 2 -10 -1 -14 -7 -10 -6 3 -11 2 -11 -3 0 -6 7
-12 15 -16 8 -3 15 -14 15 -24 0 -10 5 -23 12 -30 9 -9 9 -12 -1 -12 -7 0 -9
-4 -6 -10 4 -6 -1 -7 -11 -3 -10 4 -15 2 -11 -4 3 -5 0 -10 -8 -10 -11 0 -12
4 -4 13 7 8 5 17 -6 28 -9 9 -12 16 -6 16 5 0 14 -8 20 -17 5 -10 13 -14 17
-10 4 4 3 12 -3 18 -6 6 -9 19 -5 28 5 14 3 14 -11 3 -9 -8 -22 -12 -29 -9 -8
4 -7 6 5 6 19 1 23 16 6 26 -7 5 -2 16 12 31 23 24 49 32 49 15z m623 -11 c3
-11 2 -22 -2 -24 -4 -3 -8 6 -9 20 -2 29 4 31 11 4z m37 16 c0 -2 -7 -7 -16
-10 -8 -3 -12 -2 -9 4 6 10 25 14 25 6z m-955 -15 c3 -5 1 -12 -5 -16 -5 -3
-10 1 -10 9 0 18 6 21 15 7z m45 3 c0 -8 -19 -13 -24 -6 -3 5 1 9 9 9 8 0 15
-2 15 -3z m450 2 c0 -2 -8 -10 -17 -17 -16 -13 -17 -12 -4 4 13 16 21 21 21
13z m337 -18 c-3 -8 -6 -5 -6 6 -1 11 2 17 5 13 3 -3 4 -12 1 -19z m57 10 c-3
-5 -9 -6 -14 -3 -4 3 -11 -1 -13 -7 -4 -8 -6 -7 -6 4 -1 11 6 16 18 15 11 0
17 -5 15 -9z m96 8 c0 -2 -7 -7 -16 -10 -8 -3 -12 -2 -9 4 6 10 25 14 25 6z
m92 -5 c8 11 9 11 5 -1 -4 -16 -54 -23 -63 -9 -2 4 5 6 16 4 11 -2 20 2 21 8
0 8 3 7 6 -2 5 -11 7 -11 15 0z m-897 -10 c-11 -5 -20 -14 -20 -21 0 -7 -7
-15 -15 -17 -13 -4 -13 -3 0 6 8 6 11 11 6 11 -5 0 -3 7 4 15 7 8 20 15 29 14
12 0 11 -2 -4 -8z m415 -19 c0 -5 -7 -9 -15 -9 -8 0 -12 4 -9 9 3 4 9 8 15 8
5 0 9 -4 9 -8z m390 -7 c0 -8 -4 -15 -10 -15 -5 0 -10 7 -10 15 0 8 5 15 10
15 6 0 10 -7 10 -15z m-525 -5 c-3 -5 -12 -10 -18 -10 -7 0 -6 4 3 10 19 12
23 12 15 0z m55 1 c0 -10 -26 -9 -36 2 -4 4 2 7 14 7 12 0 22 -4 22 -9z m310
-1 c0 -5 -5 -10 -11 -10 -5 0 -7 5 -4 10 3 6 8 10 11 10 2 0 4 -4 4 -10z m48
2 c10 8 13 9 9 1 -4 -6 -1 -13 5 -16 7 -2 -2 -4 -19 -3 -33 1 -40 6 -26 20 4
4 9 2 11 -4 3 -7 9 -7 20 2z m162 3 c0 -7 -30 -13 -34 -7 -3 4 4 9 15 9 10 1
19 0 19 -2z m-723 -12 c-4 -3 -2 -11 3 -18 7 -8 5 -12 -5 -12 -8 0 -12 4 -9 9
3 4 -1 8 -8 8 -9 0 -9 3 2 10 17 11 26 13 17 3z m624 -5 c1 -7 0 -20 -1 -28
-2 -12 2 -11 18 3 16 14 21 15 30 4 8 -10 6 -13 -10 -14 -20 -2 -40 -21 -33
-33 1 -3 -3 -10 -9 -16 -9 -8 -17 -8 -29 1 -9 6 -14 15 -10 18 10 11 25 8 18
-3 -3 -5 -2 -10 3 -10 16 0 22 29 12 56 -12 32 -12 34 0 34 6 0 11 -6 11 -12z
m-931 -3 c0 -2 -10 -10 -22 -16 -21 -11 -22 -11 -9 4 13 16 31 23 31 12z m185
-25 c-11 -4 -22 -3 -23 1 -2 5 -9 6 -15 2 -7 -4 -6 1 2 10 10 13 17 14 34 5
21 -11 21 -11 2 -18z m878 24 c-7 -3 -9 -12 -6 -20 4 -10 0 -12 -13 -7 -13 5
-15 3 -9 -8 5 -8 5 -11 -1 -6 -20 19 -2 46 31 46 6 -1 5 -3 -2 -5z m-497 -16
c4 -7 3 -8 -4 -4 -7 4 -12 1 -12 -8 0 -16 -12 -21 -23 -9 -4 3 1 12 11 19 21
16 19 16 28 2z m174 9 c0 -2 -11 -18 -25 -37 -14 -19 -25 -31 -25 -27 0 5 10
21 22 37 20 27 28 35 28 27z m53 -29 c-20 -20 -21 -20 -19 -2 2 10 9 18 15 17
6 -2 11 2 11 9 0 6 3 8 7 4 4 -3 -3 -16 -14 -28z m90 9 c9 5 8 2 0 -8 -7 -8
-17 -26 -23 -40 l-10 -24 5 27 c3 15 0 30 -6 34 -8 4 -7 9 2 15 8 5 15 4 17
-1 2 -6 9 -7 15 -3z m-873 -19 c0 7 7 12 15 12 8 0 15 -5 15 -11 0 -5 -4 -8
-9 -5 -5 3 -14 0 -20 -8 -7 -8 -20 -13 -29 -11 -9 1 -24 -3 -32 -9 -13 -10
-13 -9 -1 6 7 10 17 15 22 12 9 -5 13 9 10 31 -1 6 6 1 14 -9 8 -11 15 -14 15
-8z m497 9 c0 -8 -6 -14 -14 -14 -17 0 -17 14 0 20 6 3 12 6 13 6 0 1 1 -5 1
-12z m133 -45 c0 -2 -6 0 -12 5 -18 11 -42 10 -50 -2 -5 -6 -8 -6 -8 2 0 6 4
14 10 18 5 3 6 13 3 23 -4 10 5 5 25 -13 18 -16 32 -31 32 -33z m114 41 c4
-10 4 -14 0 -10 -4 4 -14 1 -22 -6 -13 -11 -14 -9 -1 11 17 26 15 26 23 5z
m-794 1 c0 -8 -19 -13 -24 -6 -3 5 1 9 9 9 8 0 15 -2 15 -3z m110 -15 c0 -5
-4 -9 -10 -9 -5 0 -10 7 -10 16 0 8 5 12 10 9 6 -3 10 -10 10 -16z m95 1 c3
-5 1 -10 -4 -10 -6 0 -11 5 -11 10 0 6 2 10 4 10 3 0 8 -4 11 -10z m870 -7
c11 -2 24 -8 30 -14 7 -7 1 -8 -20 -3 -16 3 -37 13 -45 22 -13 13 -13 14 0 6
8 -5 24 -10 35 -11z m-481 -2 c4 -5 -1 -8 -9 -7 -21 3 -31 16 -12 16 9 0 18
-4 21 -9z m-437 -16 c0 -8 -4 -12 -9 -9 -5 3 -6 10 -3 15 9 13 12 11 12 -6z
m-82 -35 c0 -3 4 -11 9 -18 4 -7 5 -16 2 -19 -3 -3 -8 1 -12 10 -5 13 -10 14
-25 7 -15 -8 -17 -7 -13 5 3 8 10 13 14 10 5 -3 11 -1 14 4 4 5 2 12 -4 16 -5
3 -10 12 -10 18 1 11 24 -21 25 -33z m630 30 c-4 -7 2 -9 19 -4 21 5 26 3 25
-12 0 -11 -3 -14 -6 -6 -2 6 -9 12 -14 12 -6 0 -7 -5 -3 -11 4 -8 0 -7 -15 1
-18 9 -21 30 -5 30 3 0 2 -5 -1 -10z m176 -19 c6 -14 5 -20 -1 -16 -6 3 -10
12 -10 20 0 7 -5 16 -10 18 -6 3 -5 4 1 3 7 -1 16 -12 20 -25z m-738 -1 c10
-12 21 -19 25 -16 4 2 13 -7 19 -21 11 -22 10 -23 -4 -11 -15 11 -16 11 -10
-4 8 -23 5 -23 -17 4 -18 20 -18 21 0 15 17 -6 17 -6 -1 9 -11 8 -30 13 -42
11 -22 -4 -27 11 -8 25 15 11 19 10 38 -12z m190 13 c-7 -2 -13 -9 -13 -14 0
-6 6 -7 13 -3 6 4 3 -2 -8 -13 -11 -11 -24 -18 -30 -15 -5 3 -4 7 3 10 7 2 12
12 12 23 0 12 7 19 18 18 10 0 12 -3 5 -6z m602 -3 c3 -5 -1 -10 -10 -10 -9 0
-13 5 -10 10 3 6 8 10 10 10 2 0 7 -4 10 -10z m-539 -26 c1 -9 0 -13 -4 -10
-3 4 -7 14 -8 22 -1 9 0 13 4 10 3 -4 7 -14 8 -22z m300 -7 c8 -4 14 -13 14
-20 0 -7 -4 -6 -10 3 -5 8 -10 11 -10 5 0 -5 -5 -3 -10 5 -5 8 -9 22 -9 30 1
13 1 13 6 0 3 -8 12 -19 19 -23z m-666 9 c0 -2 -7 -7 -16 -10 -8 -3 -12 -2 -9
4 6 10 25 14 25 6z m237 -2 c-3 -3 -12 -4 -19 -1 -8 3 -5 6 6 6 11 1 17 -2 13
-5z m550 -16 c0 -13 -1 -17 -4 -10 -3 6 -10 9 -16 5 -7 -4 -6 1 2 10 17 21 17
21 18 -5z m43 12 c0 -5 -2 -10 -4 -10 -3 0 -8 5 -11 10 -3 6 -1 10 4 10 6 0
11 -4 11 -10z m201 1 c7 11 9 10 9 -5 0 -14 -5 -17 -21 -13 -15 4 -19 2 -15
-9 3 -8 1 -14 -4 -14 -5 0 -9 11 -8 24 2 20 5 23 16 14 10 -9 16 -8 23 3z
m-1037 -37 c3 -8 2 -12 -4 -9 -6 3 -10 10 -10 16 0 14 7 11 14 -7z m221 -20
c4 -24 3 -26 -6 -11 -5 9 -15 15 -20 11 -6 -3 -5 3 2 14 16 25 18 23 24 -14z
m165 26 c0 -5 -2 -10 -4 -10 -3 0 -8 5 -11 10 -3 6 -1 10 4 10 6 0 11 -4 11
-10z m490 -5 c-7 -8 -17 -15 -23 -15 -6 0 -2 7 9 15 25 19 30 19 14 0z m-900
-5 c0 -5 -2 -10 -4 -10 -3 0 -8 5 -11 10 -3 6 -1 10 4 10 6 0 11 -4 11 -10z
m75 0 c3 -6 -1 -7 -9 -4 -18 7 -21 14 -7 14 6 0 13 -4 16 -10z m102 -47 c-3
-15 1 -23 9 -23 8 0 14 -4 14 -10 0 -5 -6 -7 -14 -4 -8 3 -17 1 -21 -5 -3 -6
0 -11 7 -11 8 -1 5 -7 -7 -16 -19 -15 -18 -16 15 -10 28 5 31 4 13 -4 -26 -10
-32 -26 -7 -16 8 3 12 2 9 -4 -3 -6 -2 -10 4 -10 5 0 14 7 19 17 12 21 40 11
51 -19 10 -27 5 -36 -10 -21 -8 8 -20 8 -36 2 -16 -6 -22 -5 -18 1 3 6 2 10
-4 10 -5 0 -15 -8 -21 -17 -8 -14 -10 -14 -9 -3 3 35 0 43 -15 31 -10 -8 -16
-9 -21 -1 -4 6 -2 9 3 8 6 -2 9 2 9 7 -1 6 -7 10 -13 9 -6 -1 -11 4 -11 11 0
7 7 11 16 8 10 -3 6 4 -8 16 -13 12 -18 21 -11 21 10 0 10 3 0 15 -8 10 -9 15
-2 15 6 0 9 6 6 14 -3 8 0 17 5 21 6 3 8 11 5 17 -4 6 5 3 20 -8 18 -13 25
-26 23 -41z m207 44 c3 3 6 2 6 -4 0 -19 -12 -22 -27 -7 -11 11 -19 12 -28 4
-10 -8 -15 -8 -21 1 -4 7 -3 9 4 5 6 -3 13 -2 17 4 4 7 12 7 24 0 10 -5 21 -6
25 -3z m377 -7 c6 0 7 5 3 12 -4 7 -3 8 4 4 17 -10 15 -26 -3 -26 -8 0 -15 -4
-15 -10 0 -5 -4 -10 -9 -10 -5 0 -8 8 -6 18 2 9 4 22 5 27 1 6 4 4 7 -2 2 -7
9 -13 14 -13z m238 0 c11 -6 2 -7 -23 -3 -32 5 -38 4 -31 -8 5 -8 4 -10 0 -6
-5 4 -10 14 -11 21 -2 15 36 13 65 -4z m85 12 c3 -5 -1 -9 -9 -9 -8 0 -15 4
-15 9 0 4 4 8 9 8 6 0 12 -4 15 -8z m-1106 -37 c-3 -3 -9 2 -12 12 -6 14 -5
15 5 6 7 -7 10 -15 7 -18z m935 0 c-7 -21 -12 -19 -10 4 0 11 5 18 9 15 4 -3
5 -11 1 -19z m130 10 c-3 -9 -8 -14 -10 -11 -3 3 -2 9 2 15 9 16 15 13 8 -4z
m-1000 -26 c-13 -13 -33 -4 -33 14 0 7 4 6 10 -3 9 -14 15 -7 10 15 -1 6 4 4
11 -2 10 -10 10 -16 2 -24z m462 21 c3 -6 -1 -7 -9 -4 -18 7 -21 14 -7 14 6 0
13 -4 16 -10z m-81 -12 c-3 -4 -1 -8 5 -8 5 0 11 5 13 12 3 9 6 9 12 0 5 -8
-1 -15 -16 -21 -17 -6 -24 -5 -26 5 -2 8 -7 14 -12 14 -5 0 -7 -6 -4 -13 3 -8
-2 -14 -10 -14 -11 0 -13 5 -5 18 5 10 18 17 28 16 11 0 17 -5 15 -9z m416 2
c0 -5 -10 -10 -22 -9 -22 0 -22 1 -3 9 11 5 21 9 23 9 1 1 2 -3 2 -9z m19 -21
c-11 -7 -11 -9 -1 -9 7 0 10 -5 6 -11 -4 -7 -9 -7 -13 -2 -3 6 -13 13 -21 16
-12 4 -12 6 1 6 9 1 20 9 24 19 6 13 9 14 12 3 3 -7 -1 -17 -8 -22z m226 13
c-3 -3 -11 0 -18 7 -9 10 -8 11 6 5 10 -3 15 -9 12 -12z m-120 -4 c5 4 5 1 1
-6 -5 -9 -12 -9 -27 -2 -10 6 -19 13 -19 16 0 2 8 0 19 -5 10 -6 22 -7 26 -3z
m43 -6 c2 -7 -1 -12 -8 -12 -6 0 -9 4 -6 9 4 5 1 12 -4 14 -6 3 -5 4 2 3 6 -1
14 -8 16 -14z m-914 -6 c-3 -8 -1 -24 6 -35 13 -25 7 -27 -14 -5 -12 12 -13
20 -6 35 12 22 22 26 14 5z m156 8 c0 -2 -9 -8 -20 -14 -15 -8 -18 -8 -14 3 4
11 34 21 34 11z m30 -13 c-10 -20 -30 -37 -30 -27 0 6 33 46 38 46 1 0 -2 -9
-8 -19z m607 -3 c-3 -8 -6 -5 -6 6 -1 11 2 17 5 13 3 -3 4 -12 1 -19z m166 5
c-4 -11 -8 -13 -11 -5 -2 7 -8 10 -13 6 -5 -3 -9 0 -9 5 0 6 9 11 20 11 14 0
18 -5 13 -17z m-540 -24 c-8 -8 -13 -7 -18 2 -5 8 -4 10 3 5 7 -4 12 -2 12 5
0 7 3 9 7 6 4 -4 2 -12 -4 -18z m477 -4 c0 -2 -7 -5 -15 -9 -9 -3 -15 0 -15 9
0 9 6 12 15 9 8 -4 15 -7 15 -9z m-447 -10 c4 -8 3 -16 -1 -19 -4 -3 -9 4 -9
15 -2 23 3 25 10 4z m285 -1 c4 -4 -1 -4 -10 -1 -12 4 -18 1 -18 -9 0 -8 -5
-12 -10 -9 -6 4 -7 12 -3 18 5 9 2 8 -8 0 -13 -10 -16 -10 -16 2 0 12 8 14 30
11 16 -2 32 -8 35 -12z m87 6 c-3 -5 -12 -10 -18 -10 -7 0 -6 4 3 10 19 12 23
12 15 0z m16 -13 c-10 -9 -11 -8 -5 6 3 10 9 15 12 12 3 -3 0 -11 -7 -18z
m102 10 c8 8 37 -16 37 -31 0 -6 -5 -3 -11 6 -7 13 -18 16 -42 13 -18 -3 -26
-3 -19 1 6 3 9 11 5 17 -5 8 -2 8 9 0 8 -7 18 -10 21 -6z m-793 -7 c0 -5 -2
-10 -4 -10 -3 0 -8 5 -11 10 -3 6 -1 10 4 10 6 0 11 -4 11 -10z m75 0 c3 -5 1
-10 -4 -10 -6 0 -11 5 -11 10 0 6 2 10 4 10 3 0 8 -4 11 -10z m551 -2 c4 -7 3
-8 -4 -4 -7 4 -12 2 -12 -5 0 -7 -3 -10 -6 -6 -6 5 3 27 11 27 2 0 7 -5 11
-12z m-266 -13 c0 -11 -29 -11 -33 -1 -4 10 1 12 14 9 10 -3 19 -7 19 -8z
m-570 -9 c0 -2 -7 -6 -15 -10 -8 -3 -15 -1 -15 4 0 6 7 10 15 10 8 0 15 -2 15
-4z m81 -13 c7 -10 9 -15 5 -11 -5 4 -15 3 -22 -3 -9 -8 -11 -5 -7 10 6 25 7
25 24 4z m214 7 c4 -6 11 -8 16 -5 5 3 6 -1 3 -9 -4 -10 -15 -14 -27 -12 -12
3 -26 5 -31 5 -10 1 13 31 25 31 4 0 11 -5 14 -10z m461 -8 c1 -7 0 -8 -3 -2
-2 5 -9 8 -13 5 -5 -3 -12 0 -15 6 -5 7 -1 10 10 7 10 -1 20 -9 21 -16z m164
-3 c0 -13 4 -18 13 -13 6 4 8 3 4 -1 -16 -18 -35 -13 -30 9 3 15 2 17 -5 8 -8
-11 -10 -11 -15 0 -3 9 2 14 14 15 13 1 19 -5 19 -18z m70 13 c0 -5 -7 -9 -15
-9 -8 0 -15 4 -15 9 0 4 7 8 15 8 8 0 15 -4 15 -8z m110 -2 c0 -5 -5 -10 -11
-10 -5 0 -7 5 -4 10 3 6 8 10 11 10 2 0 4 -4 4 -10z m-610 -12 c0 -4 -4 -8 -9
-8 -6 0 -12 4 -15 8 -3 5 1 9 9 9 8 0 15 -4 15 -9z m27 -3 c-4 -8 -2 -17 3
-20 6 -4 10 -11 10 -16 0 -6 -7 -4 -15 5 -9 8 -22 13 -30 10 -7 -3 -22 -1 -32
6 -16 10 -16 10 3 5 25 -7 56 3 48 16 -3 5 0 9 6 9 7 0 10 -7 7 -15z m56 0
c-3 -9 -8 -14 -10 -11 -3 3 -2 9 2 15 9 16 15 13 8 -4z m267 -1 c11 -12 10
-18 -3 -32 -11 -10 -17 -12 -17 -4 0 7 -5 12 -11 12 -5 0 -8 -4 -5 -8 3 -5 -1
-9 -8 -9 -7 0 -13 6 -13 13 0 7 4 11 8 8 4 -2 11 1 15 7 4 8 9 7 15 -2 4 -7
11 -11 14 -7 3 3 -1 13 -10 22 -9 9 -12 16 -7 16 5 0 15 -7 22 -16z m260 -22
c0 -2 -4 0 -10 3 -5 3 -10 1 -10 -5 0 -6 -5 -8 -10 -5 -6 4 -18 1 -26 -6 -12
-9 -11 -5 2 18 16 28 19 29 36 14 10 -8 18 -17 18 -19z m-1088 -11 c9 -1 4
-28 -7 -38 -4 -4 -5 -2 -1 5 4 6 2 12 -3 12 -6 0 -11 -5 -11 -11 0 -5 -4 -8
-10 -4 -5 3 -6 13 -3 23 6 15 5 16 -13 2 -17 -14 -18 -14 -6 2 7 9 21 15 30
13 9 -2 20 -4 24 -4z m98 -2 c0 -4 -4 -11 -10 -14 -5 -3 -10 -1 -10 5 0 6 -5
8 -12 4 -6 -4 -8 -3 -5 3 7 11 37 13 37 2z m167 -11 c-3 -8 -6 -5 -6 6 -1 11
2 17 5 13 3 -3 4 -12 1 -19z m-80 -3 c0 -8 -4 -12 -9 -9 -5 3 -6 10 -3 15 9
13 12 11 12 -6z m291 4 c-2 -6 -8 -10 -13 -10 -5 0 -11 4 -13 10 -2 6 4 11 13
11 9 0 15 -5 13 -11z m-223 -29 c4 -6 11 -8 16 -5 5 4 9 2 9 -2 0 -5 -10 -14
-22 -22 -21 -13 -22 -13 -10 2 10 12 10 17 1 23 -7 4 -15 2 -17 -4 -2 -7 -8
-12 -14 -12 -6 0 -4 7 3 17 12 15 12 16 -3 10 -18 -6 -24 3 -12 16 8 7 40 -8
49 -23z m519 0 c11 -23 11 -30 2 -30 -7 0 -13 6 -13 13 0 6 -4 20 -8 30 -12
29 3 19 19 -13z m-641 7 c3 -8 1 -20 -5 -28 -8 -11 -9 -10 -4 4 4 12 0 17 -12
17 -15 0 -15 2 -2 10 19 12 17 12 23 -3z m669 -9 c-7 -7 -12 -8 -12 -2 0 14
12 26 19 19 2 -3 -1 -11 -7 -17z m-52 4 c0 -5 -11 -14 -25 -20 -34 -16 -39
-15 -23 2 7 8 16 12 21 9 4 -2 7 1 7 6 0 6 5 11 10 11 6 0 10 -4 10 -8z m146
-10 c-10 -2 -22 0 -28 6 -6 6 0 7 19 4 21 -5 23 -7 9 -10z m-408 -23 c-3 -8
-7 -3 -11 10 -4 17 -3 21 5 13 5 -5 8 -16 6 -23z m52 12 c-13 -11 -29 -17 -34
-14 -5 3 4 12 20 19 40 17 43 16 14 -5z m309 5 c8 -10 9 -16 1 -21 -6 -4 -9
-2 -8 3 2 6 -1 10 -7 10 -5 0 -9 -3 -8 -7 1 -4 -5 -8 -13 -8 -11 0 -11 4 3 19
19 22 18 21 32 4z m-851 -3 c-10 -2 -18 -8 -18 -12 0 -4 -9 -7 -20 -8 -16 -1
-17 1 -7 12 6 8 23 14 37 13 17 0 19 -2 8 -5z m158 -12 c-10 -11 -15 -25 -10
-32 4 -7 3 -10 -3 -6 -6 4 -14 0 -17 -9 -4 -11 -2 -15 8 -11 15 6 16 -9 3 -30
-5 -7 -6 -17 -2 -22 3 -5 0 -13 -6 -17 -8 -5 -10 1 -7 20 3 14 1 26 -3 26 -5
0 -9 -7 -9 -15 0 -8 -4 -15 -8 -15 -14 0 -10 29 5 34 8 3 11 10 8 16 -4 6 -12
8 -18 4 -7 -3 -5 0 4 8 9 7 14 20 12 28 -4 11 -2 12 4 2 7 -9 13 -6 23 13 7
14 18 25 23 25 6 0 2 -9 -7 -19z m857 2 c-8 -3 -9 -13 -2 -36 5 -18 9 -33 9
-33 0 -1 -7 -5 -16 -8 -14 -5 -15 -4 -4 9 7 8 8 15 3 15 -13 0 -12 53 1 62 6
4 13 4 16 1 3 -3 0 -8 -7 -10z m-943 -13 c0 16 17 12 24 -6 3 -9 2 -12 -5 -9
-5 4 -16 1 -24 -5 -12 -10 -15 -9 -15 4 0 9 -7 16 -15 16 -8 0 -15 5 -15 11 0
7 10 5 25 -5 14 -9 25 -12 25 -6z m-65 1 c3 -5 2 -12 -3 -15 -5 -3 -9 1 -9 9
0 17 3 19 12 6z m279 1 c3 -5 -1 -9 -9 -9 -8 0 -12 4 -9 9 3 4 7 8 9 8 2 0 6
-4 9 -8z m639 -5 c4 3 7 2 7 -4 0 -6 -7 -14 -16 -17 -8 -3 -12 -2 -9 4 3 6 1
10 -4 10 -6 0 -11 5 -11 11 0 8 4 9 13 0 8 -6 17 -8 20 -4z m127 -8 c0 -5 -8
-9 -17 -8 -11 0 -13 3 -5 6 6 2 9 10 6 15 -4 7 -2 8 4 4 7 -4 12 -11 12 -17z
m20 -26 c-11 -17 -11 -17 -6 0 3 10 7 26 7 35 1 15 2 15 6 0 2 -10 -1 -25 -7
-35z m-846 23 c-8 -20 -32 -28 -40 -13 -4 7 -4 9 1 5 4 -4 14 -1 22 7 18 19
24 19 17 1z m557 1 c-1 -12 -15 -9 -19 4 -3 6 1 10 8 8 6 -3 11 -8 11 -12z
m194 3 c3 -5 -1 -10 -9 -10 -8 0 -18 5 -21 10 -3 6 1 10 9 10 8 0 18 -4 21
-10z m-956 -37 c2 -2 0 -3 -6 -3 -6 0 -21 9 -34 21 l-24 20 30 -17 c17 -10 32
-19 34 -21z m301 17 c0 -5 -2 -10 -4 -10 -3 0 -8 5 -11 10 -3 6 -1 10 4 10 6
0 11 -4 11 -10z m433 -15 c-8 -22 -22 -18 -16 5 3 11 9 17 14 15 4 -3 6 -12 2
-20z m137 15 c0 -5 -8 -10 -17 -10 -15 0 -16 2 -3 10 19 12 20 12 20 0z m-957
-15 c-3 -9 -8 -14 -10 -11 -3 3 -2 9 2 15 9 16 15 13 8 -4z m301 3 c-5 -8 -2
-9 10 -5 11 5 15 3 10 -4 -4 -7 -1 -10 7 -7 8 3 13 10 12 16 -2 7 4 9 13 5 14
-5 13 -9 -7 -24 -13 -10 -25 -14 -27 -9 -5 14 -29 12 -35 -2 -4 -9 -6 -8 -6 3
-1 8 4 20 11 27 15 15 21 15 12 0z m443 -3 c0 -8 -4 -12 -9 -9 -4 3 -8 9 -8
15 0 5 4 9 8 9 5 0 9 -7 9 -15z m153 4 c0 -4 -7 -10 -16 -13 -8 -3 -13 -2 -9
3 3 5 -1 11 -7 14 -7 3 -3 4 10 4 12 -1 22 -4 22 -8z m-873 -14 c0 -8 -4 -12
-9 -9 -5 3 -6 10 -3 15 9 13 12 11 12 -6z m703 -20 c0 -5 -5 -3 -10 5 -5 8
-10 20 -10 25 0 6 5 3 10 -5 5 -8 10 -19 10 -25z m294 23 c-3 -4 -11 -5 -19
-1 -21 7 -19 12 4 10 11 0 18 -5 15 -9z m23 -2 c-3 -7 -1 -18 4 -23 5 -5 -1
-9 -15 -8 -13 0 -28 4 -33 9 -5 5 -1 7 9 3 11 -4 19 0 23 14 4 10 9 19 12 19
3 0 3 -6 0 -14z m-984 -26 c6 -23 -27 -48 -38 -30 -4 6 -3 10 2 9 22 -4 34 2
26 14 -10 17 -13 38 -3 32 4 -2 10 -14 13 -25z m69 18 c-8 -8 -8 -17 -1 -31 8
-14 8 -18 0 -13 -6 4 -11 2 -11 -3 0 -6 -8 -11 -17 -11 -17 1 -17 1 0 11 9 5
17 15 17 21 0 7 -6 6 -15 -2 -9 -7 -18 -10 -21 -7 -8 8 6 28 16 22 4 -3 13 2
20 10 7 8 15 15 18 15 3 0 1 -5 -6 -12z m273 3 c3 -5 0 -13 -6 -17 -8 -4 -9
-3 -5 4 4 7 2 12 -3 12 -6 0 -11 -4 -11 -10 0 -5 -5 -10 -11 -10 -8 0 -8 5 1
15 14 17 26 19 35 6z m460 -21 c-3 -5 -1 -11 5 -15 5 -3 10 -1 10 5 0 6 5 8
11 4 7 -4 8 -9 0 -17 -7 -7 -14 -7 -24 1 -8 7 -17 9 -21 5 -4 -4 -11 -1 -15 6
-12 19 -31 5 -26 -19 2 -11 0 -22 -5 -25 -4 -3 -8 10 -8 28 0 26 4 33 21 35
12 0 23 6 25 12 3 8 8 7 18 -1 8 -6 12 -15 9 -19z m90 10 c-2 -13 2 -20 11
-20 8 0 14 -7 14 -17 0 -14 -2 -14 -20 2 -18 16 -20 16 -20 2 0 -10 -5 -17
-11 -17 -5 0 -8 4 -5 9 4 5 0 12 -6 14 -8 4 -7 6 4 6 9 1 20 6 24 13 5 8 1 9
-12 5 -18 -7 -18 -7 0 8 25 19 26 19 21 -5z m-710 -9 c-3 -6 -11 -11 -17 -11
-6 0 -6 6 2 15 14 17 26 13 15 -4z m235 9 c0 -5 -4 -10 -9 -10 -6 0 -13 5 -16
10 -3 6 1 10 9 10 9 0 16 -4 16 -10z m49 -21 c-8 -4 -16 -3 -20 3 -10 15 -20
-7 -13 -27 4 -10 -1 -22 -12 -31 -18 -14 -18 -14 6 -12 17 2 24 -1 22 -11 -2
-9 3 -11 15 -7 16 5 16 5 2 -6 -19 -15 -14 -38 9 -38 8 0 13 -3 9 -6 -9 -9
-48 6 -42 17 4 5 1 9 -4 9 -6 0 -10 5 -8 11 1 6 -4 14 -12 17 -9 3 -11 0 -6
-8 5 -9 4 -11 -3 -6 -16 10 -15 26 4 47 9 10 13 23 9 29 -6 9 -10 9 -16 -1 -7
-11 -9 -11 -9 -1 0 7 -10 17 -22 22 -14 5 -17 9 -7 9 8 1 20 -4 25 -9 7 -7 16
-6 29 4 10 7 27 11 38 8 14 -4 15 -7 6 -13z m134 6 c4 -8 2 -17 -3 -20 -6 -4
-10 3 -10 14 0 25 6 27 13 6z m44 9 c-3 -3 -12 -4 -19 -1 -8 3 -5 6 6 6 11 1
17 -2 13 -5z m413 -4 c13 -8 13 -10 -2 -10 -9 0 -20 5 -23 10 -8 13 5 13 25 0z
m-530 -10 c0 -5 -7 -6 -17 -3 -12 5 -14 3 -8 -7 5 -9 4 -11 -4 -6 -6 4 -9 12
-6 17 8 12 35 12 35 -1z m36 -6 c-4 -9 -1 -23 5 -30 8 -9 8 -14 1 -14 -13 0
-26 36 -17 50 10 16 18 12 11 -6z m-302 -3 c19 9 19 9 4 -4 -10 -8 -14 -18
-10 -23 4 -4 -1 -2 -10 5 -15 11 -21 11 -33 1 -18 -15 -20 1 -3 18 8 8 15 9
22 2 6 -6 17 -5 30 1z m66 1 c0 -5 -7 -9 -15 -9 -8 0 -12 4 -9 9 3 4 9 8 15 8
5 0 9 -4 9 -8z m374 -32 c-6 -5 -24 21 -24 34 0 6 6 1 14 -10 8 -10 12 -21 10
-24z m-534 10 c0 -5 -5 -10 -11 -10 -5 0 -7 5 -4 10 3 6 8 10 11 10 2 0 4 -4
4 -10z m163 -14 c-10 -13 -20 -20 -22 -14 -1 5 5 16 15 23 26 20 28 18 7 -9z
m193 2 c-12 -16 -13 -25 -4 -35 8 -11 7 -12 -6 -7 -18 7 -13 43 8 56 18 12 18
9 2 -14z m274 12 c0 -5 -5 -10 -11 -10 -5 0 -7 5 -4 10 3 6 8 10 11 10 2 0 4
-4 4 -10z m50 6 c0 -2 -8 -10 -17 -17 -16 -13 -17 -12 -4 4 13 16 21 21 21 13z
m193 -11 c-3 -9 -8 -14 -10 -11 -3 3 -2 9 2 15 9 16 15 13 8 -4z m61 -25 c-6
-5 -24 21 -24 34 0 6 6 1 14 -10 8 -10 12 -21 10 -24z m-416 -6 c-4 -3 -12 5
-18 18 -12 22 -12 22 6 6 10 -10 15 -20 12 -24z m-716 11 c0 -5 -5 -10 -11
-11 -8 -2 -7 -1 0 3 8 4 7 8 -2 15 -11 8 -11 9 -1 6 8 -2 14 -8 14 -13z m95
-10 c-13 -10 -15 -15 -6 -21 8 -4 21 4 35 21 13 16 22 22 21 14 -2 -8 -14 -25
-28 -39 -13 -14 -23 -23 -22 -21 2 3 -7 15 -19 28 -12 12 -18 26 -15 30 4 3 7
1 7 -6 0 -8 5 -7 16 4 9 9 19 13 23 10 3 -4 -2 -13 -12 -20z m233 15 c0 -5 -5
-10 -11 -10 -5 0 -7 5 -4 10 3 6 8 10 11 10 2 0 4 -4 4 -10z m569 3 c-1 -5 -1
-15 0 -23 1 -13 3 -13 10 -1 6 9 8 2 6 -20 -6 -54 -7 -56 -14 -19 -4 20 -12
34 -19 33 -15 -4 -15 10 0 25 14 14 18 15 17 5z m138 -23 c-1 -10 -4 -17 -8
-14 -4 2 -12 -4 -18 -13 -8 -15 -13 -16 -29 -6 -26 15 -37 4 -14 -14 15 -13
15 -13 -5 -3 -22 10 -41 32 -26 29 20 -3 27 2 13 11 -12 8 -10 10 8 10 13 0
20 -4 17 -10 -3 -5 1 -10 9 -10 9 0 16 5 16 10 0 6 6 9 13 8 7 -2 11 5 9 16
-2 10 1 15 7 12 5 -4 9 -15 8 -26z m-747 -5 c-7 -8 -9 -15 -4 -15 14 0 -15
-24 -32 -26 -14 -2 -14 -1 0 15 9 10 16 23 16 30 0 7 5 9 10 6 6 -3 10 -1 10
6 0 7 3 9 6 6 4 -4 1 -13 -6 -22z m385 -4 c-6 -5 -25 10 -25 20 0 5 6 4 14 -3
8 -7 12 -15 11 -17z m71 -25 c-7 -11 -19 -22 -27 -24 -8 -2 -5 2 5 10 15 12
17 22 12 44 -7 28 -7 28 8 9 12 -16 13 -23 2 -39z m-553 24 c3 -11 1 -20 -4
-20 -5 0 -9 6 -9 14 0 8 -6 17 -12 19 -8 4 -7 6 3 6 9 1 19 -8 22 -19z m864
-27 c-3 -10 -5 -2 -5 17 0 19 2 27 5 18 2 -10 2 -26 0 -35z m-657 21 c0 -8 -5
-12 -10 -9 -6 4 -8 11 -5 16 9 14 15 11 15 -7z m440 -5 c0 -5 -4 -8 -9 -5 -5
3 -14 -1 -20 -8 -10 -11 -8 -17 6 -26 16 -10 15 -10 -4 -5 -19 5 -22 3 -16
-12 3 -10 11 -25 17 -33 8 -12 8 -13 -4 -2 -19 16 -30 15 -30 -2 0 -8 -4 -17
-9 -20 -5 -4 -7 2 -4 12 2 10 -3 24 -11 31 -13 11 -17 11 -22 -3 -3 -9 -11
-16 -16 -16 -7 0 -6 5 1 13 6 8 10 16 8 18 -1 2 0 3 2 2 2 -1 12 2 22 8 14 7
17 6 13 -5 -3 -8 -1 -17 5 -21 6 -3 11 -3 12 2 3 29 10 47 25 64 19 21 34 25
34 8z m265 2 c3 -5 1 -12 -4 -15 -5 -3 -11 1 -15 9 -6 16 9 21 19 6z m-225
-10 c0 -6 -5 -13 -12 -17 -6 -4 -8 -3 -4 4 3 5 0 13 -6 15 -8 3 -6 6 5 6 9 1
17 -3 17 -8z m-849 -28 c-12 -20 -14 -14 -5 12 4 9 9 14 11 11 3 -2 0 -13 -6
-23z m116 7 c-1 -21 -10 -18 -13 5 -1 8 2 15 6 15 5 0 8 -9 7 -20z m227 3 c4
-9 1 -21 -5 -27 -9 -8 -10 -8 -5 2 4 7 2 19 -4 27 -7 9 -8 15 -2 15 5 0 13 -8
16 -17z m200 9 c3 -5 -1 -9 -9 -9 -8 0 -12 4 -9 9 3 4 7 8 9 8 2 0 6 -4 9 -8z
m35 -37 c0 -5 -4 -3 -9 5 -5 8 -9 22 -9 30 0 16 17 -16 18 -35z m-382 23 c11
-19 13 -39 2 -32 -5 3 -7 10 -4 15 4 5 -4 13 -17 18 -16 7 -18 10 -6 10 9 1
20 -5 25 -11z m186 -22 c-3 -4 -9 -2 -14 5 -13 22 -11 31 5 17 8 -7 12 -17 9
-22z m37 0 c-14 -14 -22 -2 -14 18 5 14 9 15 15 4 4 -7 4 -17 -1 -22z m202 -8
c-6 -6 -12 -6 -17 3 -5 8 -4 10 3 5 7 -4 12 0 13 11 0 12 2 13 6 5 3 -8 1 -18
-5 -24z m354 20 c-6 -35 -18 -55 -32 -55 -15 0 -15 2 0 13 10 7 19 21 21 31 5
23 4 23 9 23 2 0 3 -6 2 -12z m-1004 -16 c-7 -2 -9 -9 -6 -14 4 -7 2 -8 -4 -4
-6 4 -9 13 -6 21 4 8 11 12 17 8 8 -5 7 -8 -1 -11z m309 -5 c-10 -9 -11 -8 -5
6 3 10 9 15 12 12 3 -3 0 -11 -7 -18z m232 8 c-3 -9 -8 -14 -10 -11 -3 3 -2 9
2 15 9 16 15 13 8 -4z m-378 -33 c-3 -3 0 -11 5 -17 8 -9 4 -12 -12 -10 -34 4
-35 5 -15 16 15 9 16 13 5 27 -12 15 -11 16 5 3 9 -8 15 -16 12 -19z m45 24
c0 -3 -4 -8 -10 -11 -5 -3 -10 -1 -10 4 0 6 5 11 10 11 6 0 10 -2 10 -4z m300
-6 c0 -5 -7 -7 -15 -4 -8 4 -15 8 -15 10 0 2 7 4 15 4 8 0 15 -4 15 -10z
m-452 -13 c6 0 12 -4 12 -8 0 -15 -20 -20 -37 -10 -10 6 -13 11 -8 11 6 0 3 5
-5 11 -12 9 -11 9 5 4 11 -4 26 -8 33 -8z m46 -3 c3 -8 2 -12 -4 -9 -6 3 -10
10 -10 16 0 14 7 11 14 -7z m346 1 c0 -2 -9 -3 -19 -2 -11 0 -18 5 -15 9 4 6
34 0 34 -7z m187 1 c4 -3 -1 -6 -10 -6 -9 0 -17 -6 -17 -12 0 -7 -5 -5 -11 5
-8 14 -14 16 -25 6 -12 -10 -13 -9 -8 4 6 16 56 18 71 3z m-377 -2 c0 -2 -9
-8 -20 -14 -15 -8 -18 -8 -14 3 4 11 34 21 34 11z m105 -4 c-3 -5 -11 -10 -16
-10 -6 0 -7 5 -4 10 3 6 11 10 16 10 6 0 7 -4 4 -10z m680 -8 c-3 -3 -11 0
-18 7 -9 10 -8 11 6 5 10 -3 15 -9 12 -12z m90 8 c-3 -5 -12 -10 -18 -10 -7 0
-6 4 3 10 19 12 23 12 15 0z m-715 -15 c0 -12 -19 -12 -23 0 -4 9 -1 12 9 8 7
-3 14 -7 14 -8z m-90 1 c0 -3 -4 -8 -10 -11 -5 -3 -10 -1 -10 4 0 6 5 11 10
11 6 0 10 -2 10 -4z"/>
<path d="M189 568 c-7 -29 -2 -81 8 -90 11 -8 12 -7 7 6 -4 10 -1 16 7 17 8 0
5 4 -6 9 -17 7 -17 9 -2 9 9 1 17 6 17 12 0 5 -4 7 -10 4 -5 -3 -7 0 -4 8 3 8
1 18 -5 22 -6 3 -11 5 -12 3z"/>
<path d="M290 430 c0 -6 -4 -9 -9 -5 -5 3 -12 2 -15 -3 -2 -4 6 -8 20 -8 25 0
32 10 14 21 -5 3 -10 1 -10 -5z"/>
<path d="M350 432 c0 -5 7 -9 15 -9 8 0 12 4 9 9 -3 4 -9 8 -15 8 -5 0 -9 -4
-9 -8z"/>
</g>
</svg>
